<?xml version="1.0" standalone="no"?>
<!DOCTYPE svg PUBLIC "-//W3C//DTD SVG 20010904//EN"
 "http://www.w3.org/TR/2001/REC-SVG-20010904/DTD/svg10.dtd">
<svg version="1.0" xmlns="http://www.w3.org/2000/svg"
 width="1024.000000pt" height="1024.000000pt" viewBox="0 0 1024.000000 1024.000000"
 preserveAspectRatio="xMidYMid meet">
<metadata>
Created by potrace 1.14, written by Peter Selinger 2001-2017
</metadata>
<g transform="translate(0.000000,1024.000000) scale(0.100000,-0.100000)"
fill="#000000" stroke="none">
<path d="M4425 10234 c-1139 -41 -1804 -158 -2415 -426 -366 -160 -676 -372
-955 -653 -599 -603 -908 -1399 -1009 -2605 -35 -414 -41 -616 -41 -1435 0
-819 6 -1021 41 -1435 101 -1206 409 -2001 1009 -2605 633 -638 1448 -944
2770 -1040 665 -48 1921 -48 2590 0 1309 95 2122 396 2750 1020 318 316 533
647 708 1090 194 490 297 1062 349 1935 18 295 18 1775 0 2070 -73 1224 -256
1926 -666 2550 -347 528 -844 924 -1466 1167 -510 200 -1041 297 -1930 354
-154 10 -1537 20 -1735 13z m-605 -3254 c516 -63 886 -295 1119 -705 92 -161
158 -362 164 -495 l2 -55 -375 0 -375 0 -31 91 c-103 299 -258 449 -529 510
-114 26 -322 24 -426 -4 -229 -62 -395 -211 -514 -465 -189 -400 -192 -1121
-6 -1502 111 -228 279 -377 501 -447 66 -20 94 -23 240 -23 159 1 168 2 257
33 244 84 392 255 483 561 l21 71 374 0 c248 0 375 -3 375 -10 0 -6 -9 -54
-21 -107 -99 -458 -390 -854 -769 -1047 -231 -118 -428 -160 -735 -160 -150 1
-218 5 -320 23 -639 110 -1080 536 -1244 1202 -56 226 -66 324 -66 639 0 322
13 448 70 674 102 405 319 739 621 955 172 123 416 222 629 255 108 17 436 20
555 6z m2040 -792 l5 -737 694 739 694 740 484 0 c265 0 483 -3 483 -7 0 -5
-331 -339 -736 -744 l-736 -736 762 -1038 c419 -571 769 -1049 777 -1062 l15
-23 -485 0 -485 0 -552 783 c-304 430 -555 784 -558 787 -2 3 -85 -78 -183
-179 l-179 -183 -2 -602 -3 -601 -367 -3 -368 -2 0 1805 0 1805 368 -2 367 -3
5 -737z"/>
</g>
</svg>
